<mxfile host="app.diagrams.net" agent="Mozilla/5.0 (X11; Linux x86_64; rv:129.0) Gecko/20100101 Firefox/129.0" version="24.7.8">
  <diagram name="Page-1" id="x436nw2a3fQkttNt9fFi">
    <mxGraphModel dx="794" dy="425" grid="1" gridSize="10" guides="1" tooltips="1" connect="1" arrows="1" fold="1" page="1" pageScale="1" pageWidth="850" pageHeight="1100" math="0" shadow="0">
      <root>
        <mxCell id="0" />
        <mxCell id="1" parent="0" />
        <mxCell id="d3MKEvzSY7tE_r2hZzPd-63" value="" style="edgeStyle=orthogonalEdgeStyle;rounded=0;orthogonalLoop=1;jettySize=auto;html=1;" edge="1" parent="1" source="jeCg72-pYYv0W8vjRzq4-4">
          <mxGeometry relative="1" as="geometry">
            <mxPoint x="140" y="160" as="targetPoint" />
          </mxGeometry>
        </mxCell>
        <mxCell id="jeCg72-pYYv0W8vjRzq4-4" value="início" style="ellipse;whiteSpace=wrap;html=1;fillColor=#d5e8d4;strokeColor=#82b366;" parent="1" vertex="1">
          <mxGeometry x="80" y="40" width="120" height="80" as="geometry" />
        </mxCell>
        <mxCell id="jeCg72-pYYv0W8vjRzq4-16" style="edgeStyle=orthogonalEdgeStyle;rounded=0;orthogonalLoop=1;jettySize=auto;html=1;" parent="1" edge="1">
          <mxGeometry relative="1" as="geometry">
            <mxPoint x="130" y="430" as="sourcePoint" />
          </mxGeometry>
        </mxCell>
        <mxCell id="klOBz9_SC71Y1ds55rlh-22" value="não" style="edgeStyle=orthogonalEdgeStyle;rounded=0;orthogonalLoop=1;jettySize=auto;html=1;entryX=0;entryY=0.5;entryDx=0;entryDy=0;" parent="1" source="klOBz9_SC71Y1ds55rlh-18" edge="1">
          <mxGeometry relative="1" as="geometry">
            <Array as="points">
              <mxPoint x="250" y="500" />
              <mxPoint x="250" y="185" />
            </Array>
            <mxPoint x="280" y="185" as="targetPoint" />
          </mxGeometry>
        </mxCell>
        <mxCell id="d3MKEvzSY7tE_r2hZzPd-77" value="" style="edgeStyle=orthogonalEdgeStyle;rounded=0;orthogonalLoop=1;jettySize=auto;html=1;" edge="1" parent="1" source="d3MKEvzSY7tE_r2hZzPd-75" target="d3MKEvzSY7tE_r2hZzPd-76">
          <mxGeometry relative="1" as="geometry" />
        </mxCell>
        <mxCell id="d3MKEvzSY7tE_r2hZzPd-75" value="adicionar água à máquina" style="rounded=0;whiteSpace=wrap;html=1;fillColor=#dae8fc;strokeColor=#6c8ebf;" vertex="1" parent="1">
          <mxGeometry x="80" y="160" width="120" height="40" as="geometry" />
        </mxCell>
        <mxCell id="d3MKEvzSY7tE_r2hZzPd-79" value="" style="edgeStyle=orthogonalEdgeStyle;rounded=0;orthogonalLoop=1;jettySize=auto;html=1;" edge="1" parent="1" source="d3MKEvzSY7tE_r2hZzPd-76" target="d3MKEvzSY7tE_r2hZzPd-78">
          <mxGeometry relative="1" as="geometry" />
        </mxCell>
        <mxCell id="d3MKEvzSY7tE_r2hZzPd-76" value="pegar uma cápsula de café" style="whiteSpace=wrap;html=1;fillColor=#dae8fc;strokeColor=#6c8ebf;rounded=0;" vertex="1" parent="1">
          <mxGeometry x="80" y="240" width="120" height="40" as="geometry" />
        </mxCell>
        <mxCell id="d3MKEvzSY7tE_r2hZzPd-81" value="" style="edgeStyle=orthogonalEdgeStyle;rounded=0;orthogonalLoop=1;jettySize=auto;html=1;" edge="1" parent="1" source="d3MKEvzSY7tE_r2hZzPd-78" target="d3MKEvzSY7tE_r2hZzPd-80">
          <mxGeometry relative="1" as="geometry" />
        </mxCell>
        <mxCell id="d3MKEvzSY7tE_r2hZzPd-78" value="abrir a máquina" style="whiteSpace=wrap;html=1;fillColor=#dae8fc;strokeColor=#6c8ebf;rounded=0;" vertex="1" parent="1">
          <mxGeometry x="80" y="320" width="120" height="40" as="geometry" />
        </mxCell>
        <mxCell id="d3MKEvzSY7tE_r2hZzPd-83" value="" style="edgeStyle=orthogonalEdgeStyle;rounded=0;orthogonalLoop=1;jettySize=auto;html=1;" edge="1" parent="1" source="d3MKEvzSY7tE_r2hZzPd-80" target="d3MKEvzSY7tE_r2hZzPd-82">
          <mxGeometry relative="1" as="geometry" />
        </mxCell>
        <mxCell id="d3MKEvzSY7tE_r2hZzPd-80" value="colocar a cápsula" style="whiteSpace=wrap;html=1;fillColor=#dae8fc;strokeColor=#6c8ebf;rounded=0;" vertex="1" parent="1">
          <mxGeometry x="80" y="400" width="120" height="40" as="geometry" />
        </mxCell>
        <mxCell id="d3MKEvzSY7tE_r2hZzPd-85" value="" style="edgeStyle=orthogonalEdgeStyle;rounded=0;orthogonalLoop=1;jettySize=auto;html=1;" edge="1" parent="1" source="d3MKEvzSY7tE_r2hZzPd-82" target="d3MKEvzSY7tE_r2hZzPd-84">
          <mxGeometry relative="1" as="geometry" />
        </mxCell>
        <mxCell id="d3MKEvzSY7tE_r2hZzPd-82" value="fechar a máquina" style="whiteSpace=wrap;html=1;fillColor=#dae8fc;strokeColor=#6c8ebf;rounded=0;" vertex="1" parent="1">
          <mxGeometry x="80" y="480" width="120" height="40" as="geometry" />
        </mxCell>
        <mxCell id="d3MKEvzSY7tE_r2hZzPd-87" value="" style="edgeStyle=orthogonalEdgeStyle;rounded=0;orthogonalLoop=1;jettySize=auto;html=1;" edge="1" parent="1" source="d3MKEvzSY7tE_r2hZzPd-84" target="d3MKEvzSY7tE_r2hZzPd-86">
          <mxGeometry relative="1" as="geometry" />
        </mxCell>
        <mxCell id="d3MKEvzSY7tE_r2hZzPd-84" value="ligar a máquina" style="whiteSpace=wrap;html=1;fillColor=#dae8fc;strokeColor=#6c8ebf;rounded=0;" vertex="1" parent="1">
          <mxGeometry x="80" y="560" width="120" height="40" as="geometry" />
        </mxCell>
        <mxCell id="d3MKEvzSY7tE_r2hZzPd-89" value="" style="edgeStyle=orthogonalEdgeStyle;rounded=0;orthogonalLoop=1;jettySize=auto;html=1;" edge="1" parent="1" source="d3MKEvzSY7tE_r2hZzPd-86" target="d3MKEvzSY7tE_r2hZzPd-88">
          <mxGeometry relative="1" as="geometry" />
        </mxCell>
        <mxCell id="d3MKEvzSY7tE_r2hZzPd-86" value="esperar" style="whiteSpace=wrap;html=1;fillColor=#dae8fc;strokeColor=#6c8ebf;rounded=0;" vertex="1" parent="1">
          <mxGeometry x="80" y="640" width="120" height="40" as="geometry" />
        </mxCell>
        <mxCell id="d3MKEvzSY7tE_r2hZzPd-90" value="não" style="edgeStyle=orthogonalEdgeStyle;rounded=0;orthogonalLoop=1;jettySize=auto;html=1;entryX=0;entryY=0.5;entryDx=0;entryDy=0;" edge="1" parent="1" source="d3MKEvzSY7tE_r2hZzPd-88" target="d3MKEvzSY7tE_r2hZzPd-86">
          <mxGeometry relative="1" as="geometry">
            <Array as="points">
              <mxPoint x="60" y="760" />
              <mxPoint x="60" y="660" />
            </Array>
          </mxGeometry>
        </mxCell>
        <mxCell id="d3MKEvzSY7tE_r2hZzPd-92" value="sim" style="edgeStyle=orthogonalEdgeStyle;rounded=0;orthogonalLoop=1;jettySize=auto;html=1;" edge="1" parent="1" source="d3MKEvzSY7tE_r2hZzPd-88" target="d3MKEvzSY7tE_r2hZzPd-91">
          <mxGeometry relative="1" as="geometry" />
        </mxCell>
        <mxCell id="d3MKEvzSY7tE_r2hZzPd-88" value="a máquina terminou?" style="rhombus;whiteSpace=wrap;html=1;fillColor=#f8cecc;strokeColor=#b85450;" vertex="1" parent="1">
          <mxGeometry x="100" y="720" width="80" height="80" as="geometry" />
        </mxCell>
        <mxCell id="d3MKEvzSY7tE_r2hZzPd-91" value="fim" style="ellipse;whiteSpace=wrap;html=1;fillColor=#d5e8d4;strokeColor=#82b366;" vertex="1" parent="1">
          <mxGeometry x="80" y="840" width="120" height="80" as="geometry" />
        </mxCell>
      </root>
    </mxGraphModel>
  </diagram>
</mxfile>
